Coordinates
version=1
nRows=8
nColumns=36
inDegrees=yes

Units are S.I. units (second, meters, Newtons, ...)
If the header above contains a line with 'inDegrees', this indicates whether rotational values are in degrees (yes) or radians (no).

endheader
time	pelvis_tilt	pelvis_list	pelvis_rotation	pelvis_tx	pelvis_ty	pelvis_tz	hip_flexion_r	hip_adduction_r	hip_rotation_r	knee_angle_r	knee_angle_r_beta	ankle_angle_r	subtalar_angle_r	mtp_angle_r	hip_flexion_l	hip_adduction_l	hip_rotation_l	knee_angle_l	knee_angle_l_beta	ankle_angle_l	subtalar_angle_l	mtp_angle_l	lumbar_extension	lumbar_bending	lumbar_rotation	arm_flex_r	arm_add_r	arm_rot_r	elbow_flex_r	pro_sup_r	arm_flex_l	arm_add_l	arm_rot_l	elbow_flex_l	pro_sup_l
      2.55000000	     -9.30824151	     -1.67914028	     12.29572853	     -0.25055102	      0.87227323	     -0.22081960	     51.60014615	     -7.57961950	     -2.51259908	     49.41315103	      0.86242218	      3.48873652	     -3.17248030	     -7.49999936	     46.76650147	     -9.88194846	     -1.47023117	     50.99940627	      0.89010756	      9.53291514	     -2.26791896	     -7.49999936	     -9.44789184	     -0.47496399	     -3.38318907	     39.68834332	    -30.29264062	     50.06911449	    136.47674707	     75.98603514	     48.32166333	    -36.46577379	     49.77234882	    128.31365120	     92.98553485
      2.56666670	    -10.83958125	     -2.25039946	     12.34811141	     -0.25160191	      0.83157467	     -0.22257895	     58.80030335	     -6.87214616	     -0.82827297	     59.55086695	      1.03935870	     10.45951501	     -5.87340882	     -7.49999940	     54.39581209	    -10.50905374	     -1.55328589	     61.51626924	      1.07366144	     16.19607594	     -3.01227640	     -7.49999940	    -11.13331308	     -0.15166913	     -3.41294552	     43.10258784	    -28.47431831	     50.43451545	    137.36441951	     75.86372867	     54.04962407	    -35.77700601	     51.97139667	    130.73498786	     92.66182841
      2.58333330	    -13.10702014	     -3.17158830	     12.57226243	     -0.24969904	      0.80367580	     -0.22306515	     65.68966265	     -6.63957011	     -0.46745391	     67.42271726	      1.17674841	     15.63284764	     -7.03003031	     -7.49999944	     61.70838385	    -11.07861951	     -1.10700392	     69.47912354	      1.21263947	     19.63064015	     -4.05503617	     -7.49999944	    -13.36958286	      0.00960474	     -1.67171677	     44.05674378	    -29.20690559	     48.53413969	    138.90329606	     75.93880429	     61.41252138	    -32.43727371	     57.73792937	    131.21369435	     92.76858010
      2.60000000	    -15.42878074	     -4.18293227	     12.67018652	     -0.23692878	      0.77539032	     -0.22502663	     71.59376935	     -6.73377899	     -0.60455651	     74.17673975	      1.29462834	     20.01717664	     -7.34389135	     -7.49999949	     67.85627228	    -11.95584658	     -0.40887157	     76.26197874	      1.33102262	     22.27734718	     -4.68743069	     -7.49999949	    -15.28536363	      0.61597071	     -0.12828777	     45.08021679	    -29.32471083	     47.43955530	    138.92087348	     77.26860238	     64.35026117	    -29.21098551	     58.97193891	    128.75724733	     91.64029130
      2.61666670	    -17.53069377	     -5.02627919	     12.89281863	     -0.24215695	      0.76168603	     -0.23044056	     76.28509631	     -7.40836644	     -0.80937718	     78.56100589	      1.37114822	     22.47155549	     -7.07295369	     -7.49999950	     73.12487889	    -12.04355783	      0.26728687	     80.92658546	      1.41243537	     23.50517986	     -5.53516459	     -7.49999950	    -18.19022750	      1.67107192	      0.84285145	     47.87044850	    -28.87968778	     47.24285664	    136.30320424	     77.81432674	     65.77475128	    -27.17033646	     59.08451356	    126.35918750	     91.41021324
      2.63333330	    -20.12619359	     -5.87436841	     13.14305858	     -0.23619484	      0.74123341	     -0.22879417	     80.80060912	     -8.11291565	     -0.86662755	     82.11199349	      1.43312464	     24.48424189	     -6.59467003	     -7.49999958	     78.37359278	    -12.01726612	      0.75132219	     84.58564695	      1.47629804	     24.62268963	     -5.97606360	     -7.49999958	    -20.40447352	      2.15477693	      2.12091538	     50.06906138	    -28.52183846	     47.69035575	    136.82215702	     86.08559786	     67.65290713	    -24.46476154	     60.05862094	    125.35068154	     90.05841559
      2.65000000	    -22.54597746	     -6.73392088	     13.79968011	     -0.24475520	      0.71670588	     -0.22938316	     85.35896384	     -9.10282069	     -0.75635300	     85.34894513	      1.48962011	     25.94273817	     -6.08526786	     -7.49999954	     83.26883528	    -11.36603144	      1.56355498	     87.51048502	      1.52734609	     25.16658125	     -6.87332018	     -7.49999954	    -22.11385572	      3.11039450	      2.39891849	     53.53965428	    -28.19837565	     48.11919287	    135.62278732	     85.67399905	     68.26535274	    -23.00783515	     59.50308986	    124.36346110	     89.47177431
      2.66666670	    -24.42921812	     -7.70965126	     13.99763377	     -0.23629970	      0.70068317	     -0.22472869	     88.74765602	     -9.38961267	     -0.92806085	     87.76954019	      1.53186746	     27.10899154	     -6.05204677	     -7.49999955	     86.92399140	    -11.24719218	      2.60943078	     89.58613975	      1.56357310	     25.22571705	     -7.57339760	     -7.49999955	    -23.56179034	      3.92582466	      3.22707755	     55.74678852	    -27.59234745	     48.04987263	    133.78222197	     85.67420196	     68.44135131	    -21.68921964	     59.93377502	    121.74527249	     89.79126287
